<?xml version="1.0" encoding="UTF-8" standalone="no"?>
<svg
   xmlns:dc="http://purl.org/dc/elements/1.1/"
   xmlns:cc="http://creativecommons.org/ns#"
   xmlns:rdf="http://www.w3.org/1999/02/22-rdf-syntax-ns#"
   xmlns:svg="http://www.w3.org/2000/svg"
   xmlns="http://www.w3.org/2000/svg"
   xmlns:sodipodi="http://sodipodi.sourceforge.net/DTD/sodipodi-0.dtd"
   xmlns:inkscape="http://www.inkscape.org/namespaces/inkscape"
   version="1.1"
   x="0px"
   y="0px"
   viewBox="0 0 256 320"
   style="enable-background:new 0 0 256 256;"
   xml:space="preserve"
   id="svg12"
   sodipodi:docname="noun_Male_.svg"
   inkscape:version="0.92.4 (5da689c313, 2019-01-14)"><metadata
     id="metadata18"><rdf:RDF><cc:Work
         rdf:about=""><dc:format>image/svg+xml</dc:format><dc:type
           rdf:resource="http://purl.org/dc/dcmitype/StillImage" /><dc:title></dc:title></cc:Work></rdf:RDF></metadata><defs
     id="defs16" /><sodipodi:namedview
     pagecolor="#ffffff"
     bordercolor="#666666"
     borderopacity="1"
     objecttolerance="10"
     gridtolerance="10"
     guidetolerance="10"
     inkscape:pageopacity="0"
     inkscape:pageshadow="2"
     inkscape:window-width="1920"
     inkscape:window-height="1014"
     id="namedview14"
     showgrid="false"
     inkscape:zoom="2.11"
     inkscape:cx="128"
     inkscape:cy="195.27994"
     inkscape:window-x="0"
     inkscape:window-y="36"
     inkscape:window-maximized="1"
     inkscape:current-layer="svg12" /><g
     id="g6"><g
       id="g4"><path
         d="M128,18C67.2,18,18,67.2,18,128c0,60.8,49.2,110,110,110s110-49.2,110-110C238,67.2,188.8,18,128,18z M175,167.4v0.8    c0,4-21,7.3-47,7.3c-25.9,0-47-3.3-47-7.3v-0.8c0-7.5,17-15,37-19.9c-7.9-6.5-11.8-12.6-14.2-20.2c-1.8-0.5-3.4-2.2-4.2-4.4    c-1.1-3-0.3-6.1,1.7-7.4c-0.3-1.8-0.5-3.7-0.8-5.7c-1.6-13.2,3.2-26,14.7-26c1.2,0,2.5,0.1,3.8,0.4c0,0,3.5-3,8.9-3.5    c1.4-0.1,2.8-0.2,4.1-0.2c17.6,0,25.3,10.8,23.4,29.2c-0.2,2-0.4,3.9-0.7,5.8c2,1.3,2.7,4.3,1.7,7.3c-0.8,2.2-2.4,3.8-4.1,4.4    c-2.4,7.6-6.4,13.8-14.3,20.3C157.9,152.4,175,159.9,175,167.4L175,167.4z"
         id="path2" /></g></g></svg>